REM DIRINDEX 1\2,1\3\7,1\3\8,1\4\9,1\4\10,1\4\11,1\5\12,1\5\13,1\5\14,1\6\15,1\6\16,1\6\17
REM DIRNAME "folder01","folder02","folder03","folder04","folder05","folder06","folder07","folder08","folder09","folder10","folder11","folder12","folder13","folder14","folder15","folder16","folder17"
TITLE ""
FILE "2Q_t_0301-0317.mp3" MP3
  TRACK 01 AUDIO
    TITLE "0:"
    INDEX 01 00:00:00
  TRACK 02 AUDIO
    TITLE "2:cjc174_2345"
    INDEX 01 00:00:12
  TRACK 03 AUDIO
    TITLE "0:"
    INDEX 01 00:01:51
  TRACK 04 AUDIO
    TITLE "2:cjc174_2346"
    INDEX 01 00:02:21
  TRACK 05 AUDIO
    TITLE "0:"
    INDEX 01 00:03:30
  TRACK 06 AUDIO
    TITLE "7:cjc174_2347"
    INDEX 01 00:04:02
  TRACK 07 AUDIO
    TITLE "0:"
    INDEX 01 00:05:13
  TRACK 08 AUDIO
    TITLE "8:cjc174_2348"
    INDEX 01 00:05:66
  TRACK 09 AUDIO
    TITLE "0:"
    INDEX 01 00:07:34
  TRACK 10 AUDIO
    TITLE "7:cjc174_2349"
    INDEX 01 00:08:04
  TRACK 11 AUDIO
    TITLE "0:"
    INDEX 01 00:09:17
  TRACK 12 AUDIO
    TITLE "8:cjc174_2350"
    INDEX 01 00:09:72
  TRACK 13 AUDIO
    TITLE "0:"
    INDEX 01 00:11:12
  TRACK 14 AUDIO
    TITLE "7:cjc174_2351"
    INDEX 01 00:11:57
  TRACK 15 AUDIO
    TITLE "0:"
    INDEX 01 00:13:05
  TRACK 16 AUDIO
    TITLE "8:cjc174_2352"
    INDEX 01 00:13:52
  TRACK 17 AUDIO
    TITLE "0:"
    INDEX 01 00:15:14
  TRACK 18 AUDIO
    TITLE "7:cjc174_2353"
    INDEX 01 00:15:59
  TRACK 19 AUDIO
    TITLE "0:"
    INDEX 01 00:17:07
  TRACK 20 AUDIO
    TITLE "8:cjc174_2354"
    INDEX 01 00:17:58
  TRACK 21 AUDIO
    TITLE "0:"
    INDEX 01 00:19:21
  TRACK 22 AUDIO
    TITLE "7:cjc174_2355"
    INDEX 01 00:19:64
  TRACK 23 AUDIO
    TITLE "0:"
    INDEX 01 00:21:12
  TRACK 24 AUDIO
    TITLE "8:cjc174_2356"
    INDEX 01 00:21:59
  TRACK 25 AUDIO
    TITLE "0:"
    INDEX 01 00:23:52
  TRACK 26 AUDIO
    TITLE "7:cjc174_2357"
    INDEX 01 00:24:25
  TRACK 27 AUDIO
    TITLE "0:"
    INDEX 01 00:25:32
  TRACK 28 AUDIO
    TITLE "8:cjc174_2358"
    INDEX 01 00:26:04
  TRACK 29 AUDIO
    TITLE "0:"
    INDEX 01 00:29:35
  TRACK 30 AUDIO
    TITLE "7:cjc174_2359"
    INDEX 01 00:30:04
  TRACK 31 AUDIO
    TITLE "0:"
    INDEX 01 00:31:27
  TRACK 32 AUDIO
    TITLE "8:cjc174_2360"
    INDEX 01 00:32:02
  TRACK 33 AUDIO
    TITLE "0:"
    INDEX 01 00:35:11
  TRACK 34 AUDIO
    TITLE "7:cjc174_2361"
    INDEX 01 00:35:56
  TRACK 35 AUDIO
    TITLE "0:"
    INDEX 01 00:36:63
  TRACK 36 AUDIO
    TITLE "8:cjc174_2362"
    INDEX 01 00:37:35
  TRACK 37 AUDIO
    TITLE "0:"
    INDEX 01 00:40:49
  TRACK 38 AUDIO
    TITLE "7:cjc174_2363"
    INDEX 01 00:41:21
  TRACK 39 AUDIO
    TITLE "0:"
    INDEX 01 00:42:42
  TRACK 40 AUDIO
    TITLE "8:cjc174_2364"
    INDEX 01 00:43:24
  TRACK 41 AUDIO
    TITLE "0:"
    INDEX 01 00:44:53
  TRACK 42 AUDIO
    TITLE "7:cjc174_2365"
    INDEX 01 00:45:25
  TRACK 43 AUDIO
    TITLE "0:"
    INDEX 01 00:46:42
  TRACK 44 AUDIO
    TITLE "8:cjc174_2366"
    INDEX 01 00:47:14
  TRACK 45 AUDIO
    TITLE "0:"
    INDEX 01 00:49:66
  TRACK 46 AUDIO
    TITLE "7:cjc174_2367"
    INDEX 01 00:50:36
  TRACK 47 AUDIO
    TITLE "0:"
    INDEX 01 00:51:66
  TRACK 48 AUDIO
    TITLE "8:cjc174_2368"
    INDEX 01 00:52:36
  TRACK 49 AUDIO
    TITLE "0:"
    INDEX 01 00:57:06
  TRACK 50 AUDIO
    TITLE "7:cjc174_2369"
    INDEX 01 00:57:49
  TRACK 51 AUDIO
    TITLE "0:"
    INDEX 01 00:58:68
  TRACK 52 AUDIO
    TITLE "8:cjc174_2370"
    INDEX 01 00:59:42
  TRACK 53 AUDIO
    TITLE "0:"
    INDEX 01 01:02:23
  TRACK 54 AUDIO
    TITLE "7:cjc174_2371"
    INDEX 01 01:02:66
  TRACK 55 AUDIO
    TITLE "0:"
    INDEX 01 01:04:34
  TRACK 56 AUDIO
    TITLE "8:cjc174_2372"
    INDEX 01 01:05:04
  TRACK 57 AUDIO
    TITLE "0:"
    INDEX 01 01:06:46
  TRACK 58 AUDIO
    TITLE "7:cjc174_2373"
    INDEX 01 01:07:16
  TRACK 59 AUDIO
    TITLE "0:"
    INDEX 01 01:08:18
  TRACK 60 AUDIO
    TITLE "8:cjc174_2374"
    INDEX 01 01:08:67
  TRACK 61 AUDIO
    TITLE "0:"
    INDEX 01 01:10:32
  TRACK 62 AUDIO
    TITLE "7:cjc174_2375"
    INDEX 01 01:11:03
  TRACK 63 AUDIO
    TITLE "0:"
    INDEX 01 01:12:24
  TRACK 64 AUDIO
    TITLE "8:cjc174_2376"
    INDEX 01 01:12:71
  TRACK 65 AUDIO
    TITLE "0:"
    INDEX 01 01:14:17
  TRACK 66 AUDIO
    TITLE "7:cjc174_2377"
    INDEX 01 01:14:62
  TRACK 67 AUDIO
    TITLE "0:"
    INDEX 01 01:15:69
  TRACK 68 AUDIO
    TITLE "8:cjc174_2378"
    INDEX 01 01:16:39
  TRACK 69 AUDIO
    TITLE "0:"
    INDEX 01 01:17:60
  TRACK 70 AUDIO
    TITLE "7:cjc174_2379"
    INDEX 01 01:18:30
  TRACK 71 AUDIO
    TITLE "0:"
    INDEX 01 01:19:27
  TRACK 72 AUDIO
    TITLE "8:cjc174_2380"
    INDEX 01 01:19:75
  TRACK 73 AUDIO
    TITLE "0:"
    INDEX 01 01:21:42
